<?xml version="1.0" encoding="UTF-8"?>
<svg id="Layer_1" xmlns="http://www.w3.org/2000/svg" xmlns:xlink="http://www.w3.org/1999/xlink" version="1.1" viewBox="276 276 523 348" width="523" height="348">
  <!-- Generator: Adobe Illustrator 29.5.1, SVG Export Plug-In . SVG Version: 2.1.0 Build 141)  -->
  
  <path fill="#ffffff" d="M616.8,610.8l-19.78.03c-.23-.17-.18-1.18-.34-1.62-.12-.33-.43-.35-.5-.51-1.01-2.44-2.01-4.85-3.12-7.2-.16-.33-.19-.73-.26-1.09-.48-.89-1.41,1.07-1.59,1.26-5.46,5.86-12.29,9.34-19.47,11.53-.72.22-2.07.09-2.78.26-3.33.81-6.55,1.39-10.36,1.68-14.41,1.1-29.45.17-44.19.49-1.03-.94-2.89-.39-4.31-.49-4.13-.3-7.81-.86-11.55-1.69-1.95-.43-4.7-.39-6.62-.98-8.56-2.61-22.76-6.25-28.82-13.95-1.48-1.88-3.03-4.67-3.73-6.87-.64-2.01-.56-3.98-.99-5.89-.57-2.51-.56-5.65-1.21-8.19v-255.15c.01-.44.46-.23.52-.69.46-3.66.08-7.29.95-11.01.13-.57,1.28-3.57,1.64-4.4,1.17-2.74,5.88-7.76,8.52-9.37,7.54-4.6,15.75-7.56,24.08-9.44,4.56-1.03,10.46-1.58,15.3-1.94,18.03-1.31,36.9-.63,55.23-.49.85.9,2.16.39,3.35.49,11.22.91,21.73,3.57,31.74,7.91,6.63,2.87,13.19,6.92,15.87,14.13.52,1.39.65,3.06.99,4.44.05.19.43.15.47.33.6,2.62-.06,6.29.98,8.58l-.02,91.58h-51.6v-89.65c-.5-4.47-1.33-9.26-3.99-13.04-2.07-2.95-3.96-4.16-7.34-5.57-.98-.41-2.63-1.15-3.65-1.44-3.89-1.09-6.75-1.13-10.83-1.64-.46-.06-.23-.46-.69-.52-.8-.1-3.31-.1-4.11,0-.44.06-.31.45-.51.49-1.07.25-3.24-.03-4.47.25-1.52.35-3.66.92-5.34,1.42-2.65.79-6.06,2.43-8.31,4.11-.76.57-3.58,4.55-4.01,5.46-.96,1.98-1.32,4.35-2.17,6.22-.41,87.78-.41,175.65,0,263.43.79.38.41,1.54.7,2.46.76,2.44,3.27,7.48,5.38,9.14,2.39,1.88,5.83,3.29,8.67,4.18,2.49.78,7.15,1.56,9.84,1.67,7.43.32,16.73-1.3,22.62-5.29,2.76-1.45,5.56-5.52,6.53-8.35.65-1.9.66-4.21,1.48-5.92l.22-114.38h-37.2v-14.64h88.8v159.84Z"/>
  <path fill="#ffffff" d="M336.24,482.16v94.69c.19,4.39.89,7.99,2.66,11.68,2.67,5.58,6.26,7.37,12.04,8.85.18.05.17.39.36.45,5.38,1.44,13.52,2.2,19.4,1.47.44-.05.31-.45.51-.5,2.93-.65,5.47-.82,8.39-1.89,3.39-1.24,6.58-3.6,8.65-6.72.47-.71,1.19-1.87,1.5-2.63,1.14-2.79,1.36-5.75,2.2-8.55v-83.55c-.91-2.72-1.14-5.76-2.2-8.55-1.65-4.35-5-7.53-8.52-10.61s-6.51-4.66-10.47-6.88c-19.53-10.94-40.39-20.41-59.89-31.16-4.42-2.43-8.84-4.91-12.91-8.28-6.01-4.97-10.14-11.18-12.33-18.31-.71-2.32-.57-5.24-1.47-7.37v-85.71c.88-2.62.72-5.82,1.47-8.57.15-.54.7-2.11.96-2.87.66-1.91,3.73-5.92,5.41-7.36,5.66-4.86,15.13-8.98,22.12-10.81,3.11-.81,6.37-1.5,9.34-2.18,4.22-.96,9.28-.63,13.65-1.19.46-.06.23-.46.69-.52,7-.88,16.12-.06,23.34-.07,8.27-.02,18.86-.94,26.86.07.46.06.23.46.69.52,4.13.53,8.66.27,12.69,1.19,8.22,1.87,17.35,4.66,24.83,8.86,6.55,3.68,10.52,7.14,12.75,14.37,1.05,3.41.68,7.43,1.72,10.71l-.02,81.74h-51.84l.02-77.9c-1.03-1.67-.28-4.6-.74-6.66-.04-.17-.41-.15-.46-.35-.85-3.54-1.89-6.42-4.2-9.32-2.01-2.52-6.49-4.5-9.37-5.4-1.13-.35-4.62-1.33-5.51-1.44-1.28-.16-3.69.03-4.77-.23-.19-.05-.06-.44-.51-.49s-2.22-.07-2.61.02c-.18.04-.15.43-.33.47-1.04.24-3.14,0-4.23.25-1.5.34-3.7.91-5.33,1.42-3.8,1.19-9.04,4.22-11.1,7.86-1.23,2.17-1.97,4.79-2.92,6.97-.81,27.82-.8,55.85,0,83.67,1.43,4.13,3.19,7.31,6.47,10.67,2.83,2.89,6.38,5.39,10.04,7.41,5,2.77,10.25,5.72,15.35,8.47,13.38,7.22,27.68,14.68,41.15,21.87,6.15,3.29,11.7,6.75,17.39,10.56,3.73,2.5,9.7,7.86,12.02,11.9.72,1.26,1.77,3.72,2.18,5.07.71,2.3.9,5.07,1.7,7.18.41,33.75.4,67.68,0,101.43-.88,2.05-.85,4.89-1.7,7.17-1.02,2.73-3.89,6.59-6.29,8.52-4.07,3.28-11.91,6.78-16.68,8.45-2.81.98-5.84,1.56-8.63,2.41-3.46,1.05-7.92.9-11.42,1.7-2.43.55-5.24.8-7.95.97-5.61.35-11.27.46-17.06.72-9.69-1.38-21.48.96-30.97-.24-.46-.06-.23-.46-.69-.52-5.15-.65-10.92-.02-16.05-1.19-7.03-1.6-14.65-3.25-21.47-6.16-8.29-3.54-16.01-8.41-18.52-17.77-.73-2.72-.58-6.02-1.47-8.57l.02-99.26h52.08Z"/>
  <path fill="#ffffff" d="M634.08,289.68h104.53c1.7.53,3.63.01,5.29.22.46.06.23.46.69.52,3.31.42,7.3.21,10.53.95,2.58.59,5.89,1.29,8.51,2.13,2.48.8,4.89,1.46,7.31,2.44,1.82.74,3.85,1.94,5.53,3.1,4.28,2.95,8.38,7.75,10.29,12.57,2.17,5.47,3.1,11.09,3.33,17.3-.99,34.26,1.39,69.32-.25,103.45-.51,10.57-3.56,21.15-12.79,27.48-3.28,2.56-7.65,4.56-11.4,5.73-3.19,1-6.36,1.19-9.49,1.95-7.83,1.89-16.45,2.06-25,2.4h-45.01s0,140.87,0,140.87h-52.08v-321.12ZM686.16,306v148.8l32.54.02c1.77-.94,4.7-.76,6.64-1.48,5.37-1.99,10.28-7.1,11.92-12.65.73-2.45.65-5.32,1.48-7.6v-105.15c-.81-2.32-.79-5.34-1.47-7.85-.17-.61-2.05-4.83-2.46-5.39-.19-.26-.87-.36-1.06-.62s-.12-.74-.3-.96c-2.94-3.65-8.88-6.21-13.36-6.62-1.4-.13-3.07.38-4.03-.53l-29.9.02Z"/>
</svg>